<svg width="137" height="134" viewBox="0 0 137 134" fill="none" xmlns="http://www.w3.org/2000/svg">
<g id="advanced_placement_psychology__2bab5308-a372-4877-a915-9af5bc1812c5">
<path id="Combined Shape" opacity="0.5" fill-rule="evenodd" clip-rule="evenodd" d="M51.7285 133H104.729V90.2C116.829 80.7 123.729 66.4 123.729 51C123.729 23.4 101.329 1 73.7285 1H72.9285C45.7285 1.5 23.7285 24.2 23.7285 51.8V55.8L14.2285 81.6C13.8285 82.9 13.9285 84.2 14.7285 85.3C15.5285 86.4 16.7285 87 18.0285 87H23.7285V98C23.7285 107.4 31.3285 115 40.7285 115H51.7285V133ZM70.7285 58C75.7285 58 79.7285 62 79.7285 67L98 77.5C98 73.2231 98.8855 72.6981 101.355 71.2337C102.235 70.7123 103.316 70.0716 104.629 69.1C107.929 66.6 110.129 62.9 110.629 58.8C113.829 56.1 115.729 52.2 115.729 48C115.729 45.2 114.929 42.5 113.329 40.2C113.629 39.1 113.729 38.1 113.729 37C113.729 30.5 109.129 24.9 102.829 23.4C100.929 18.3 96.1285 15 90.7285 15C89.5285 15 88.3285 15.2 87.1285 15.5C84.9285 13.3 81.9285 12 78.7285 12C75.8285 12 73.0285 13 70.9285 14.9C69.0285 13.6 66.9285 13 64.7285 13C60.5285 13 56.7285 15.4 54.8285 19.2C47.4285 17.9 40.7285 23.2 39.8285 30.3C34.9285 32.6 31.7285 37.5 31.7285 43C31.7285 50.7 38.0285 57 45.7285 57C48.5285 57 51.3285 56.1 53.6285 54.5C55.3285 56.7 57.9285 58 60.7285 58H70.7285Z" fill="white"/>
<path id="Combined Shape_2" opacity="0.25" fill-rule="evenodd" clip-rule="evenodd" d="M71.6285 15.5C75.9563 19.7545 76.1411 23.0404 75.8927 24.529C76.9022 32.9049 83.4364 34.5905 85.8486 34.9214C86.1496 32.5874 87.1186 27.5143 90.3285 27.1239V27.1C98.5285 27.1 100.829 25.5 101.429 24.9C101.729 24.5 101.729 24.2 101.729 24.2L103.629 23.7C103.829 24.2 103.729 25.1 103.029 26C101.557 28.0597 97.4888 29.0612 90.7285 29.0989V29.1L90.7053 29.099L90.6249 29.0994C89.0481 29.1646 88.1133 32.628 87.8204 35.032C93.2489 35.3549 97.1651 38.1092 98.8903 42.684C100.587 42.1484 103.63 40.8108 105.731 37.7928C105.776 36.0924 106.371 34.7652 107.429 33.9C109.349 32.3457 112.272 32.8812 112.835 32.9844C112.888 32.9941 112.92 33 112.929 33L112.429 34.9C111.729 34.7 109.729 34.5 108.629 35.4C108.029 36 107.729 36.8 107.729 38H106.701L107.629 38.6C105.178 42.381 101.502 44.0048 99.4488 44.6387C100.172 48.328 99.316 52.2842 97.3857 54.8821C99.6874 56.3452 104.369 59.8367 103.729 63.2L102.729 63V63.1C101.729 63.1 100.929 63.4 100.329 64.2C97.7285 67 97.6285 74.4 97.7285 77C97.7285 77 97.2128 77.4162 97.2128 77.0258C97.2128 77.0151 96.9527 76.8849 96.6483 76.7326C96.2192 76.5179 95.7022 76.2592 95.7022 76.2292C95.7022 75 95.7255 66.1546 98.8285 62.8C99.5937 62.0348 100.456 61.5116 101.414 61.264C100.475 59.5072 97.8507 57.5163 95.9933 56.3562C95.7485 56.5563 95.4934 56.7381 95.2285 56.9C89.8932 60.0617 88.8531 66.3472 88.7325 67.076L88.7285 67.1V72L86.7285 71V66.9C86.7285 66.6 87.7285 59 94.2285 55.2C95.8235 54.2316 96.9642 52.1925 97.4473 49.8404C95.4883 49.6008 91.3263 49.3673 88.8247 51.3528C88.7555 54.4927 87.7568 57.0681 85.8285 58.9C82.7285 61.9 78.4285 62 77.8285 62V60C77.8285 60 81.8285 60.1 84.4285 57.5C86.0285 56 86.8285 53.8 86.8285 51H87.7285L87.0285 50.3C90.1071 47.3753 95.3183 47.5902 97.6924 47.8443C97.7434 46.659 97.6296 45.4495 97.3285 44.3C96.5285 41.5 94.2285 37 86.7285 37C86.6763 37 84.0643 36.9183 81.1947 35.5328L81.4285 35.8C81.1285 36 75.0285 41.6 80.6285 51.6L79.7285 52.05V52.9C75.8285 53 73.6285 57.4 73.6285 57.4L71.8285 56.5L71.8341 56.4888C71.9819 56.19 74.0474 52.0168 78.0976 51.084C76.8292 48.4163 76.3128 46.0306 76.2524 43.9534C75.5447 43.5963 70.4277 41.9493 68.6285 46.4L67.7285 46.0684V48C62.8285 48 62.7285 56.9 62.7285 57H60.7285C60.7285 56.5044 60.925 46.1851 67.5495 46.0025L66.7285 45.7C68.664 40.9074 73.4877 41.0416 76.3454 41.8749C76.8107 38.0199 78.7927 35.5347 79.6414 34.6559C77.5123 33.2613 75.4672 31.0392 74.4285 27.5C73.1285 29.6 70.9285 31.1 68.3285 31.7C65.7285 32.3 63.1285 32 60.8285 30.8C61.7285 33.3 62.3285 36.3 61.0285 38.8C59.5285 41.6 56.0285 43 50.7285 43C46.801 43 44.5446 44.4997 43.4544 45.5357L43.5285 45.6C42.7285 46.5 42.3285 47.6 42.4285 48.7C42.6285 52 46.5285 55.2 46.5285 55.2L45.1285 56.8C45.1143 56.7857 45.0792 56.7547 45.0262 56.7079C44.336 56.0976 40.6071 52.8007 40.3285 48.9C40.2591 47.7208 40.4785 46.5896 41.0533 45.5734L40.9285 45.5C41.0285 45.3 43.7285 41 50.8285 41C52.2466 41 53.5057 40.9007 54.5997 40.699C54.1592 39.39 52.4101 36 46.7285 36V34C53.7093 34 55.9461 38.4805 56.5409 40.1676C57.8665 39.6556 58.803 38.9034 59.3285 37.9C61.1173 34.5014 57.8666 29.0229 57.1599 27.832C57.0765 27.6914 57.0285 27.6106 57.0285 27.6L58.6285 26.4C60.8285 29.2 64.4285 30.5 67.9285 29.7C71.0285 29 73.2285 26.8 73.8285 23.8L73.9589 23.8065C74.004 22.6213 73.5709 20.1728 70.2285 16.9L71.6285 15.5ZM46.6285 35.9996C46.6617 35.9999 46.695 36 46.7285 36H46.6285V35.9996ZM46.6285 35.9996C40.5629 35.9563 38.9936 31.9704 38.7568 31.3688L38.7567 31.3688L38.7567 31.3688L38.7567 31.3688C38.7431 31.3342 38.7339 31.3108 38.7285 31.3L40.6285 30.7C40.6285 30.8 41.7285 34 46.6285 34V35.9996ZM81.0245 35.4492L81.0897 35.4816L81.3285 35.8L81.0245 35.4492Z" fill="white"/>
<path id="Combined Shape_3" opacity="0.9" fill-rule="evenodd" clip-rule="evenodd" d="M77.8285 61.4445C76.1864 59.3426 73.6253 58 70.7285 58H60.7285C57.9285 58 55.3285 56.7 53.6285 54.5C51.3285 56.1 48.5285 57 45.7285 57C38.0285 57 31.7285 50.7 31.7285 43C31.7285 37.5 34.9285 32.6 39.8285 30.3C40.7285 23.2 47.4285 17.9 54.8285 19.2C56.7285 15.4 60.5285 13 64.7285 13C66.9285 13 69.0285 13.6 70.9285 14.9C73.0285 13 75.8285 12 78.7285 12C81.9285 12 84.9285 13.3 87.1285 15.5C88.3285 15.2 89.5285 15 90.7285 15C96.1285 15 100.929 18.3 102.829 23.4C109.129 24.9 113.729 30.5 113.729 37C113.729 38.1 113.629 39.1 113.329 40.2C114.929 42.5 115.729 45.2 115.729 48C115.729 52.2 113.829 56.1 110.629 58.8C110.129 62.9 107.929 66.6 104.629 69.1C103.315 70.0716 102.235 70.7123 101.355 71.2338C98.8855 72.6981 98 73.2231 98 77.5L97.1778 77.0275L97.7285 77C97.6285 74.4 97.7285 67 100.329 64.2C100.929 63.4 101.729 63.1 102.729 63.1V63L103.729 63.2C104.369 59.8367 99.6874 56.3452 97.3857 54.8821C99.316 52.2842 100.172 48.328 99.4488 44.6387C101.502 44.0048 105.178 42.381 107.629 38.6L106.701 38H107.729C107.729 36.8 108.029 36 108.629 35.4C109.729 34.5 111.729 34.7 112.429 34.9L112.929 33C112.92 33 112.888 32.9941 112.835 32.9844C112.272 32.8812 109.349 32.3457 107.429 33.9C106.371 34.7652 105.776 36.0924 105.731 37.7928C103.63 40.8108 100.587 42.1484 98.8903 42.684C97.1651 38.1092 93.2489 35.3549 87.8204 35.032C88.1133 32.628 89.0481 29.1646 90.6249 29.0994L90.7053 29.099L90.7285 29.1V29.0989C97.4888 29.0612 101.557 28.0597 103.029 26C103.729 25.1 103.829 24.2 103.629 23.7L101.729 24.2C101.729 24.2 101.729 24.5 101.429 24.9C100.829 25.5 98.5285 27.1 90.3285 27.1V27.1239C87.1186 27.5143 86.1496 32.5874 85.8486 34.9214C83.4364 34.5905 76.9022 32.9049 75.8927 24.529C76.1411 23.0404 75.9563 19.7545 71.6285 15.5L70.2285 16.9C73.5709 20.1728 74.004 22.6213 73.9589 23.8065L73.8285 23.8C73.2285 26.8 71.0285 29 67.9285 29.7C64.4285 30.5 60.8285 29.2 58.6285 26.4L57.0285 27.6C57.0285 27.6106 57.0765 27.6914 57.1599 27.832C57.8666 29.0229 61.1173 34.5014 59.3285 37.9C58.8029 38.9034 57.8665 39.6556 56.5409 40.1676C55.9461 38.4805 53.7093 34 46.7285 34V36C46.695 36 46.6617 35.9999 46.6285 35.9996V34C41.7285 34 40.6285 30.8 40.6285 30.7L38.7285 31.3C38.7339 31.3108 38.7431 31.3342 38.7567 31.3688L38.7568 31.3688C38.9936 31.9704 40.5629 35.9563 46.6285 35.9996V36H46.7285C52.4101 36 54.1592 39.39 54.5997 40.699C53.5057 40.9007 52.2466 41 50.8285 41C43.7285 41 41.0285 45.3 40.9285 45.5L41.0533 45.5734C40.4785 46.5896 40.2591 47.7208 40.3285 48.9C40.6071 52.8007 44.336 56.0976 45.0262 56.7079C45.0792 56.7547 45.1143 56.7857 45.1285 56.8L46.5285 55.2C46.5285 55.2 42.6285 52 42.4285 48.7C42.3285 47.6 42.7285 46.5 43.5285 45.6L43.4543 45.5357C44.5446 44.4997 46.801 43 50.7285 43C56.0285 43 59.5285 41.6 61.0285 38.8C62.3285 36.3 61.7285 33.3 60.8285 30.8C63.1285 32 65.7285 32.3 68.3285 31.7C70.9285 31.1 73.1285 29.6 74.4285 27.5C75.4672 31.0392 77.5123 33.2613 79.6414 34.6559C78.7927 35.5347 76.8107 38.0199 76.3454 41.8749C73.4877 41.0416 68.664 40.9074 66.7285 45.7L67.5495 46.0025C60.925 46.1851 60.7285 56.5044 60.7285 57H62.7285C62.7285 56.9 62.8285 48 67.7285 48V46.0684L68.6285 46.4C70.4277 41.9493 75.5447 43.5963 76.2524 43.9534C76.3128 46.0306 76.8292 48.4163 78.0976 51.084C74.0474 52.0168 71.9819 56.19 71.8341 56.4888L71.8285 56.5L73.6285 57.4C73.6285 57.4 75.8285 53 79.7285 52.9V52.05L80.6285 51.6C75.0285 41.6 81.1285 36 81.4285 35.8L81.1947 35.5328C84.0643 36.9183 86.6763 37 86.7285 37C94.2285 37 96.5285 41.5 97.3285 44.3C97.6296 45.4495 97.7434 46.659 97.6924 47.8443C95.3183 47.5902 90.1071 47.3753 87.0285 50.3L87.7285 51H86.8285C86.8285 53.8 86.0285 56 84.4285 57.5C81.8285 60.1 77.8285 60 77.8285 60V61.4445ZM81.3285 35.8L81.0245 35.4492L81.0897 35.4816L81.3285 35.8ZM95.9933 56.3562C95.7485 56.5563 95.4934 56.7381 95.2285 56.9C89.8932 60.0617 88.8531 66.3472 88.7325 67.076L88.7285 67.1V72.172L95.7012 76.179C95.648 73.5626 95.7454 66.133 98.8285 62.8C99.5937 62.0348 100.456 61.5116 101.414 61.264C100.475 59.5072 97.8507 57.5163 95.9933 56.3562ZM88.8247 51.3528C91.3263 49.3673 95.4883 49.6008 97.4473 49.8404C96.9642 52.1925 95.8235 54.2316 94.2285 55.2C87.7285 59 86.7285 66.6 86.7285 66.9V71.0227L79.7285 67C79.7285 65.14 79.175 63.4184 78.2224 61.9896C79.4942 61.9286 83.1196 61.5216 85.8285 58.9C87.7568 57.0681 88.7555 54.4927 88.8247 51.3528Z" fill="white"/>
</g>
</svg>
